<svg width="21" height="21" viewBox="0 0 21 21" fill="none" xmlns="http://www.w3.org/2000/svg">
<path d="M20.0086 18.2829C20.0072 18.2783 20.0057 18.2737 20.0042 18.269L18.5898 13.9715V3.44763C18.5898 1.72202 17.1859 0.318115 15.4602 0.318115H6.3247V5.4387C6.3247 8.31473 3.98486 10.6546 1.10884 10.6546H0.369019V15.6875C0.369019 17.4131 1.77292 18.817 3.49854 18.817H14.1156L16.8483 20.6355C17.2075 20.8786 17.6138 20.9998 18.0192 20.9998C18.4538 20.9998 18.8876 20.8606 19.2613 20.5832C19.9851 20.0461 20.2785 19.1432 20.0086 18.2829ZM12.9078 14.577C12.3688 14.7805 11.7669 14.5083 11.5635 13.9693L11.1092 12.7656H7.93369L7.47414 13.9723C7.31565 14.3884 6.91945 14.6444 6.49905 14.6444C6.37561 14.6444 6.25015 14.6224 6.12796 14.5759C5.58954 14.3708 5.31936 13.7681 5.52438 13.2297L8.39707 5.68698C8.40006 5.67905 8.40319 5.67112 8.40639 5.66326C8.59409 5.20455 9.03556 4.9078 9.5312 4.90731C10.0296 4.90474 10.4689 5.20267 10.6575 5.66111C10.6614 5.67057 10.6651 5.68002 10.6687 5.68962L13.5153 13.2326C13.7188 13.7716 13.4468 14.3735 12.9078 14.577Z" fill="#F0A880"/>
</svg>
