<svg width="21" height="21" viewBox="0 0 21 21" fill="none" xmlns="http://www.w3.org/2000/svg">
<path d="M17.1088 0H5.1471C3.42149 0 2.01758 1.4039 2.01758 3.12952V13.7232L0.603181 18.0211C0.601651 18.0257 0.60019 18.0305 0.59873 18.0351C0.329105 18.8951 0.622584 19.7978 1.34641 20.3348C1.72007 20.612 2.15375 20.7513 2.58834 20.7513C2.99365 20.7513 3.39972 20.6303 3.75871 20.3872L6.49168 18.5685H17.1087C18.8344 18.5685 20.2383 17.1646 20.2383 15.439V3.12959C20.2383 1.4039 18.8344 0 17.1088 0ZM15.4819 13.9186C15.2782 14.1223 15.0112 14.2241 14.7443 14.2241C14.4773 14.2241 14.2104 14.1223 14.0067 13.9186L13.5499 13.4617C12.7851 13.9625 11.8722 14.255 10.8918 14.255C8.20854 14.255 6.02552 12.0719 6.02552 9.38869C6.02552 6.70545 8.20854 4.52243 10.8918 4.52243C13.575 4.52243 15.758 6.70545 15.758 9.38869C15.758 10.3379 15.4839 11.2238 15.012 11.9733L15.482 12.4432C15.8893 12.8508 15.8893 13.5112 15.4819 13.9186Z" fill="#F0A880"/>
</svg>
