<svg width="25" height="14" viewBox="0 0 25 14" fill="none" xmlns="http://www.w3.org/2000/svg">
<path d="M22.4175 5.12598C19.8349 5.12598 14.6675 8.39648 12.0849 8.39648C9.50217 8.39648 6.59398 6.41635 6.59398 6.41635C6.59398 6.41635 10.0737 7.06154 12.0829 7.06154C14.0921 7.06154 14.6656 6.37567 14.6656 5.4476C14.6656 3.18654 10.8255 2.83585 8.8841 2.54135C6.9776 1.4796 5.98754 0.640666 2.82942 0.373291C2.81004 0.557354 2.78098 0.739479 2.7306 0.923542L0.136292 10.0685C3.07548 11.4054 8.13429 13.5231 10.7906 13.5231C14.6656 13.5231 24.9983 8.35579 24.9983 7.06542C24.9983 5.77504 23.7079 5.12598 22.4175 5.12598Z" fill="#4D4D4D"/>
</svg>
