<svg width="27" height="17" viewBox="0 0 27 17" fill="none" xmlns="http://www.w3.org/2000/svg">
<path d="M26.603 1.39882C26.4906 1.03845 26.1186 0.767198 25.7427 0.716823C23.4565 0.414573 20.3236 0.003822 17.8164 2.25907C16.1502 3.76063 15.9293 6.28326 17.2216 8.06576C16.0243 9.29413 15.2648 10.5651 14.7862 11.6831C14.298 10.6639 13.7245 9.75138 13.151 8.9667C13.4086 8.32926 13.5443 7.62788 13.5365 6.88776C13.521 5.39395 12.9165 3.9292 11.9187 2.97207C8.86133 0.030947 5.02702 0.416509 1.9464 0.726509L1.78753 0.742009C1.41165 0.780759 1.09197 1.03263 0.967966 1.38913C0.845903 1.74563 0.94084 2.14282 1.21209 2.40438C2.59159 3.72963 2.87253 5.1382 3.1709 6.62813C3.43634 7.95338 3.70952 9.32513 4.82746 10.4004C5.88533 11.4176 7.28227 11.9291 8.64627 11.9291C9.87464 11.9291 11.0681 11.5009 11.973 10.6659C12.8371 11.9504 13.6469 13.5373 13.9744 15.3023C13.9821 15.343 14.0054 15.3759 14.017 15.4147C14.0325 15.4612 14.0461 15.5038 14.0674 15.5464C14.1023 15.6162 14.1449 15.6782 14.1953 15.7363C14.2205 15.7673 14.2418 15.7983 14.2708 15.8254C14.3367 15.8874 14.4123 15.9359 14.4936 15.9766C14.5169 15.9882 14.5363 16.0056 14.5614 16.0153C14.6758 16.0618 14.7978 16.0948 14.9257 16.0948C14.9838 16.0948 15.0439 16.0889 15.1039 16.0793C15.1466 16.0715 15.1776 16.0463 15.2183 16.0328C15.2706 16.0153 15.3171 15.9979 15.3655 15.9746C15.4314 15.9417 15.4895 15.901 15.5438 15.8545C15.5825 15.8216 15.6174 15.7867 15.6523 15.7479C15.6988 15.6937 15.7356 15.6394 15.7704 15.5755C15.7976 15.5271 15.8189 15.4767 15.8363 15.4244C15.8576 15.3604 15.8693 15.2984 15.877 15.2326C15.8809 15.1977 15.8983 15.1686 15.8983 15.1318C15.9003 14.9807 15.9778 12.0221 18.7406 9.28251C19.1533 9.45301 19.6048 9.56732 20.0872 9.59638C20.1783 9.6022 20.2693 9.60607 20.3604 9.60607C21.488 9.60607 22.6079 9.19338 23.4042 8.47845C24.3458 7.62982 24.5996 6.54676 24.8438 5.50051C25.1014 4.3942 25.3456 3.35182 26.3899 2.41214C26.6689 2.16026 26.7154 1.7592 26.603 1.39882Z" fill="#F0A880"/>
</svg>
